<svg width="106" height="63" xmlns="http://www.w3.org/2000/svg"><g fill="#5BA8EF" fill-rule="nonzero"><path d="M60.22 16.316l-.055.86 12.37 7.385c7.575-8.984 18.674-14.143 30.471-14.143h2.494v2.48c0 6.982-3.741 13.56-9.764 17.15v.422c6.023 3.59 9.764 10.169 9.764 17.15v2.48h-2.494c-11.797 0-22.895-5.158-30.471-14.142l-13.038 7.78c-5.761 3.435-12.202 5.506-18.842 6.139V62.5H38.16c-8.879 0-16.211-6.628-17.302-15.16A44.939 44.939 0 0 1 7.166 39.35l-3.654-3.113C2.408 35.294.949 32.84.5 31.5v-2.59c.449-1.34 1.914-3.684 3.012-4.627l3.654-3.112a45.073 45.073 0 0 1 9.42-6.144C20.106 6.285 28.603.5 38.162.5 48.186.5 57.052 6.855 60.22 16.316zM6.834 32.322l3.654 3.111c3.467 2.952 7.395 5.246 11.585 6.87 4.82-7.26 4.82-17.118 0-24.372a40.004 40.004 0 0 0-11.585 6.858L6.834 27.9c-1.297 1.11-1.297 3.31 0 4.42zm46.702-18.679c-3.31-5.096-8.99-8.333-15.3-8.333-5.612 0-10.725 2.567-14.123 6.709a44.928 44.928 0 0 1 12.352-1.749 45.141 45.141 0 0 1 17.071 3.373zM26.387 48.764c1.372 4.222 4.926 7.478 9.353 8.377v-7.224a44.931 44.931 0 0 1-9.353-1.153zm66.853-23.12a15.104 15.104 0 0 0 7.114-10.31 34.724 34.724 0 0 0-23.992 12.338l-.717.856v3.162l.723.85a34.706 34.706 0 0 0 23.992 12.344 15.117 15.117 0 0 0-7.114-10.311l-7.482-4.464 7.476-4.464zM70.657 29.03l-13.655-8.147a40.187 40.187 0 0 0-20.538-5.654c-3.217 0-6.397.421-9.477 1.172a26.868 26.868 0 0 1 3.766 13.708c0 4.848-1.31 9.554-3.766 13.708 3.08.75 6.26 1.172 9.477 1.172 7.227 0 14.328-1.96 20.538-5.66l13.655-8.147V29.03z"/><path d="M17 31v-5h5v5z"/></g></svg>