<svg width="84" height="69" xmlns="http://www.w3.org/2000/svg"><g fill-rule="nonzero" fill="none"><g fill="#5BA8EF"><path d="M44.414 43.903l-.034.542 7.75 4.652a24.851 24.851 0 0 1 19.09-8.91h1.562v1.562c0 4.4-2.344 8.544-6.117 10.805v.266c3.773 2.262 6.117 6.407 6.117 10.805v1.563H71.22a24.85 24.85 0 0 1-19.09-8.91l-8.168 4.902a28.161 28.161 0 0 1-11.805 3.867c-4.209.275-8.343-.257-12.403-1.598a28.118 28.118 0 0 1-8.578-5.035l-2.289-1.96c-.691-.595-1.606-2.141-1.887-2.985v-1.632c.281-.844 1.2-2.32 1.887-2.915l2.289-1.96a28.222 28.222 0 0 1 5.902-3.872 14.544 14.544 0 0 1 13.516-9.152c6.281 0 11.836 4.004 13.82 9.965zM10.968 53.987l2.29 1.96a25.233 25.233 0 0 0 7.257 4.328c3.02-4.574 3.02-10.784 0-15.355a25.032 25.032 0 0 0-7.258 4.32l-2.289 1.962c-.812.699-.812 2.085 0 2.785zm29.259-11.768c-2.074-3.211-5.633-5.25-9.586-5.25-3.515 0-6.718 1.617-8.847 4.226a28 28 0 0 1 7.738-1.101c3.68 0 7.312.734 10.695 2.125zm24.874 7.561a9.516 9.516 0 0 0 4.457-6.496 21.715 21.715 0 0 0-15.03 7.773l-.45.54v1.992l.453.535A21.704 21.704 0 0 0 69.562 61.9a9.525 9.525 0 0 0-4.457-6.496l-4.687-2.812L65.1 49.78zm-14.148 2.133L42.4 46.78a25.07 25.07 0 0 0-12.867-3.562c-2.016 0-4.008.265-5.938.738a17 17 0 0 1 2.36 8.637 17 17 0 0 1-2.36 8.636c1.93.473 3.922.739 5.938.739 4.527 0 8.976-1.235 12.867-3.567l8.554-5.133v-1.355z"/><path d="M17 53v-3.125h3.125V53z"/></g><path d="M77.17 65.593L82.172 59 84 61.41 78.241 69H5.76L0 61.41 1.828 59l5.002 6.593h70.34zM27.625 29.89l-2.405-1.794c3.478-4.664 3.478-8.455.128-11.894C20.91 11.645 20.91 6.08 25.196 0l2.452 1.728c-3.505 4.973-3.505 8.937-.151 12.38 4.442 4.561 4.442 9.996.128 15.782zM43.625 29.89l-2.405-1.794c3.478-4.664 3.478-8.455.128-11.894C36.91 11.645 36.91 6.08 41.196 0l2.452 1.728c-3.505 4.973-3.505 8.937-.151 12.38 4.442 4.561 4.442 9.996.128 15.782zM59.625 29.89l-2.405-1.794c3.478-4.664 3.478-8.455.128-11.894C52.91 11.645 52.91 6.08 57.196 0l2.452 1.728c-3.505 4.973-3.505 8.937-.151 12.38 4.442 4.561 4.442 9.996.128 15.782z" fill="#979797"/></g></svg>