<svg xmlns="http://www.w3.org/2000/svg" viewBox="0 0 100 100">
  <path d="M56.457 84.375H45.625c-2.918 0-5.418-2.5-5.418-5.418v-2.293c-2.5-.832-4.793-1.875-6.875-3.332l-2.5 1.457c-2.5 1.457-6.043.625-7.5-2.082l-5.418-9.375c-1.457-2.5-.625-5.832 2.082-7.5l1.25-.832c-.203-1.457-.414-3.332-.414-5 0-1.043 0-1.875.207-3.125l-2.082-1.25c-1.25-.625-2.082-1.875-2.5-3.332s-.207-2.918.625-4.168L22.5 28.75c1.457-2.5 4.793-3.543 7.5-2.082l1.668 1.043c2.082-1.668 4.168-2.918 6.668-3.957v-2.918c0-2.918 2.5-5.418 5.418-5.418h10.832c2.918 0 5.418 2.5 5.418 5.418v2.918a23.419 23.419 0 0 1 5.832 3.332l3.543-2.082c2.5-1.457 5.832-.625 7.5 2.082l5.418 9.375c.625 1.25.832 2.707.625 4.168-.207 1.457-1.25 2.5-2.5 3.332l-3.547 1.871c.207 1.457.207 2.707.207 4.168v1.875l3.957 2.293c1.25.625 2.082 1.875 2.5 3.332.418 1.457.207 2.918-.625 4.168l-5.418 9.375c-1.457 2.5-4.793 3.543-7.5 2.082l-2.918-1.668c-1.668 1.457-3.543 2.707-5.418 3.75v3.957c.215 2.711-2.285 5.211-5.203 5.211zM33.332 68.957c.625 0 1.25.207 1.668.625 2.293 1.668 4.582 2.707 7.293 3.543 1.25.418 2.082 1.457 2.082 2.707v3.125c0 .625.625 1.25 1.25 1.25h10.832c.625 0 1.25-.625 1.25-1.25v-4.793c0-1.043.625-2.082 1.668-2.707 2.082-1.043 4.168-2.293 5.832-3.957.832-.832 2.293-1.043 3.332-.418l3.75 2.082c.625.418 1.457.207 1.668-.418l5.418-9.375c.207-.207.207-.625.207-1.043s-.207-.625-.625-.832l-4.582-2.707c-1.043-.625-1.457-1.668-1.457-2.707 0-.832.207-1.457.207-2.293 0-1.457-.207-2.918-.418-4.375-.207-1.25.418-2.5 1.457-2.918l3.957-2.293c.207-.207.418-.418.625-.832.207-.418 0-.625-.207-1.043l-5.621-8.953c-.418-.625-1.043-.832-1.668-.418l-4.375 2.293c-1.043.625-2.293.418-3.125-.207-1.875-1.457-3.957-2.707-6.25-3.543-1.043-.418-1.875-1.457-1.875-2.707v-3.957c0-.625-.625-1.25-1.25-1.25H43.543c-.625 0-1.25.625-1.25 1.25V25c0 1.25-.832 2.293-1.875 2.707-2.5 1.043-4.793 2.293-6.875 4.168-.832.832-2.293.832-3.332.207l-2.5-1.457c-.625-.418-1.457-.207-1.668.418l-5.418 9.375c-.207.207-.207.625-.207 1.043 0 .418.207.625.625.832l2.707 1.668c1.043.625 1.668 1.668 1.457 2.918C25 47.919 25 48.957 25 50c0 1.668.207 3.543.625 5.207.207 1.25-.207 2.5-1.457 3.125l-2.082 1.25c-.625.418-.832 1.043-.418 1.668l5.418 9.375c.418.625 1.043.832 1.668.418l3.125-1.875c.414 0 1.039-.21 1.453-.21zm27.918 6.46zm15.625-22.71zM21.668 47.5zm55-2.5zM30.832 28.543zm1.46 0zm32.5-.836zM50 64.793c-8.125 0-14.793-6.668-14.793-14.793S41.875 35.207 50 35.207 64.793 41.875 64.793 50 58.125 64.793 50 64.793zm0-25.418c-5.832 0-10.625 4.793-10.625 10.625S44.168 60.625 50 60.625 60.625 55.832 60.625 50 55.832 39.375 50 39.375z"/>
</svg>