<?xml version="1.0" encoding="UTF-8"?>
<svg width="26px" height="36px" viewBox="0 0 26 36" version="1.1" xmlns="http://www.w3.org/2000/svg" xmlns:xlink="http://www.w3.org/1999/xlink">
    <!-- Generator: Sketch 52 (66869) - http://www.bohemiancoding.com/sketch -->
    <title>Water body location</title>
    <desc>Created with Sketch.</desc>
    <defs>
        <linearGradient x1="50%" y1="100%" x2="50%" y2="47.6967379%" id="linearGradient-1">
            <stop stop-color="#008A24" stop-opacity="0.876188859" offset="0%"></stop>
            <stop stop-color="#9B9B9B" stop-opacity="0.289260643" offset="100%"></stop>
        </linearGradient>
    </defs>
    <g id="Page-1" stroke="none" stroke-width="1" fill="none" fill-rule="evenodd">
        <g id="Water-body-location" transform="translate(1.000000, 1.000000)" fill-rule="nonzero">
            <path d="M12.0006989,35 L1.52329554,17.8003983 C1.50873583,17.7768023 0,15.4136143 0,11.9666777 C0,5.36906737 5.38359994,0 11.9990682,0 C18.6164001,0 24,5.36906737 24,11.9666777 C24,14.0122204 23.466765,16.0414537 22.4639385,17.8129439 L12.0006989,35 Z" id="Shape" stroke="#000000" fill="url(#linearGradient-1)"></path>
            <path d="M12,2 C6.4860067,2 2,6.48609727 2,12 C2,17.5139027 6.48609727,22 12,22 C17.5139933,22 22,17.5139027 22,12 C22,6.48609727 17.5156689,2 12,2 Z" id="Path" fill="#4A90E2"></path>
            <path d="M12,2 C6.4860067,2 2,6.48609727 2,12 C2,17.5139027 6.48609727,22 12,22 C17.5139933,22 22,17.5139027 22,12 C22,6.48609727 17.5156689,2 12,2 Z M12,3.13214383 C15.2531474,3.13214383 18.0941038,4.89756363 19.638348,7.51566887 C19.2898605,7.43606557 19.0563355,7.20432932 18.7308668,6.83814872 C18.2992392,6.34992301 17.7597138,5.74137306 16.7018386,5.74137306 C15.6440087,5.74137306 15.1062404,6.34992301 14.6728104,6.83814872 C14.2677158,7.29453854 14.0147632,7.55280319 13.4928901,7.55280319 C12.9710624,7.55280319 12.7180962,7.29453401 12.3129698,6.83814872 C11.8813423,6.34992301 11.3418169,5.74137306 10.2857078,5.74137306 C9.22787791,5.74137306 8.69010959,6.34992301 8.25844579,6.83814872 C7.85335115,7.29453854 7.60039851,7.55280319 7.0785255,7.55280319 C6.55665248,7.55280319 6.3019654,7.29453401 5.8986052,6.83814872 C5.71816864,6.63471606 5.52004347,6.41890227 5.27945838,6.22959877 C6.90693778,4.33679015 9.31269813,3.13214383 11.9998641,3.13214383 L12,3.13214383 Z M19.0899375,15.9502762 C18.6406168,15.4655828 18.0816049,14.8623766 16.9954714,14.8623766 C15.9093379,14.8623766 15.3503306,15.4655828 14.9010053,15.9485101 C14.4729146,16.4119645 14.2022462,16.6738067 13.6361743,16.6738067 C13.0718685,16.6738067 12.8011955,16.4120007 12.3731093,15.9485101 C11.9237886,15.4638167 11.3665429,14.8623766 10.2804094,14.8623766 C9.19427588,14.8623766 8.63526854,15.4655828 8.1859433,15.9485101 C7.75785255,16.4101984 7.48718413,16.6738067 6.92287836,16.6738067 C6.35857259,16.6738067 6.08789965,16.4120007 5.65981342,15.9485101 C5.39977357,15.6672448 5.10433838,15.3488362 4.69042659,15.129472 C4.54360112,15.0268726 4.09428494,14.7402953 3.53174531,14.6359478 C3.27170546,13.8027805 3.13018748,12.9164931 3.13018748,11.998415 C3.13018748,11.9081967 3.14080156,11.8197491 3.14433928,11.7313015 C3.52997464,11.8462866 3.79355584,12.0939408 4.1172584,12.4070555 C4.61078254,12.8811521 5.22286478,13.4702291 6.39390907,13.4702291 C7.56495336,13.4702291 8.17880174,12.8811521 8.67055973,12.4070555 C9.12164659,11.9718866 9.44893126,11.658799 10.1635857,11.658799 C10.8782402,11.658799 11.2037542,11.9719092 11.6566117,12.4070555 C12.1501359,12.8811521 12.7622181,13.4702291 13.9332624,13.4702291 C15.1043067,13.4702291 15.7181551,12.8811521 16.2116792,12.4070555 C16.6627661,11.9736573 16.9900507,11.658799 17.7047052,11.658799 C18.4193597,11.658799 18.7466398,11.9719092 19.1977312,12.4070555 C19.5762929,12.7714654 20.0291323,13.2013223 20.7491305,13.3817408 C20.5740014,14.4908794 20.1954216,15.5310479 19.6488226,16.4650666 C19.4524681,16.3341636 19.2791052,16.153727 19.0898152,15.9503034 L19.0899375,15.9502762 Z M12,20.8678562 C8.60356852,20.8678562 5.64957884,18.946744 4.16013042,16.1341364 C4.40248166,16.2632733 4.60060683,16.4737795 4.82881985,16.7196812 C5.27814057,17.2043746 5.83538629,17.8075808 6.92328593,17.8075808 C8.00941944,17.8075808 8.56842677,17.2043746 9.01775202,16.7214473 C9.44584277,16.2597591 9.71651119,15.9961507 10.280817,15.9961507 C10.8451227,15.9961507 11.1157957,16.2579567 11.5438819,16.7196812 C11.9932026,17.2043746 12.5504483,17.8075808 13.6365818,17.8075808 C14.7227153,17.8075808 15.2817227,17.2043746 15.7310479,16.7214473 C16.1591387,16.2579929 16.4298071,15.9961507 16.995879,15.9961507 C17.5619509,15.9961507 17.8326239,16.2579567 18.2607101,16.7214473 C18.4765239,16.9531836 18.7170999,17.1990762 19.0178426,17.4024998 C17.3957069,19.5040304 14.857214,20.8679015 12.0003623,20.8679015 L12,20.8678562 Z M20.8574404,12.2336745 C20.5248709,12.108079 20.2807717,11.8763427 19.9835613,11.5915225 C19.4900371,11.117426 18.8761888,10.5283489 17.7051445,10.5283489 C16.5341002,10.5283489 15.9202518,11.117426 15.4267277,11.5915225 C14.9756408,12.0249207 14.6483561,12.339779 13.9337017,12.339779 C13.2190472,12.339779 12.8935332,12.0266688 12.4406757,11.5915225 C11.9471515,11.117426 11.3350693,10.5283489 10.164025,10.5283489 C8.99298071,10.5283489 8.38089847,11.117426 7.88737433,11.5915225 C7.43628747,12.0249207 7.10900281,12.339779 6.39434834,12.339779 C5.67969387,12.339779 5.35417988,12.0266688 4.90132234,11.5915225 C4.50684268,11.2111946 4.02744317,10.7618875 3.25264922,10.5973644 C3.4543112,9.33429943 3.91780636,8.15972285 4.59351508,7.13196268 C4.74918486,7.25579205 4.89247351,7.41322797 5.04813876,7.5883525 C5.47976633,8.07657821 6.01929173,8.68512816 7.07540078,8.68512816 C8.13323069,8.68512816 8.670999,8.07657821 9.1026628,7.5883525 C9.50775745,7.13196268 9.76071008,6.87369803 10.2825831,6.87369803 C10.8044561,6.87369803 11.0591432,7.13196721 11.4625034,7.5883525 C11.894131,8.07657821 12.4336564,8.68512816 13.4897654,8.68512816 C14.5475953,8.68512816 15.0853636,8.07657821 15.5187936,7.5883525 C15.9238882,7.13196268 16.1768409,6.87369803 16.70048,6.87369803 C17.2223078,6.87369803 17.4770401,7.13196721 17.8821665,7.5883525 C18.313794,8.07657821 18.8533194,8.68512816 19.9111946,8.68512816 L20.2189974,8.68512816 C20.6329363,9.71112218 20.8682139,10.8273707 20.8682139,12.0001811 C20.8682139,12.0797844 20.8593692,12.1558509 20.8576003,12.2336835 L20.8574404,12.2336745 Z" id="Shape" fill="#000000"></path>
        </g>
    </g>
</svg>