<svg xmlns="http://www.w3.org/2000/svg" width="82" height="98">
  <path fill="#5BA8EF" fill-rule="nonzero" d="M71.66 69.07a14.546 14.546 0 0 0 9.965-13.82 14.544 14.544 0 0 0-9.152-13.516 28.222 28.222 0 0 0-3.871-5.902l-1.961-2.29a4.95 4.95 0 0 0-2.203-1.449V9.648c1.812-.644 3.125-2.363 3.125-4.398A4.691 4.691 0 0 0 62.875.562C30.137.562 3.5 27.2 3.5 59.937H.375v31.25a6.258 6.258 0 0 0 6.25 6.25 6.258 6.258 0 0 0 6.25-6.25V67.71c.914.692 1.965 1.207 3.125 1.446V80.25h7.813v-3.125h-4.688v-7.97c3.563-.726 6.25-3.882 6.25-7.655 0-4.309-3.504-7.813-7.812-7.813-1.649 0-3.176.52-4.438 1.395a59.333 59.333 0 0 1 2.793-13.402c.868-.801 1.493-1.93 1.606-3.215l.594-1.485c1.488-3.726 3.672-7.058 6.457-9.937a4.667 4.667 0 0 0 3.886-4.223 43.875 43.875 0 0 1 10.723-8.566 4.617 4.617 0 0 0 1.817.37c2.195 0 4.023-1.519 4.535-3.558a85.34 85.34 0 0 1 13.043-3.953 4.702 4.702 0 0 0 2.734 2.535v22.445c-.843.282-1.61.758-2.203 1.45l-1.96 2.289a28.118 28.118 0 0 0-5.036 8.578c-5.375.683-9.55 5.277-9.55 10.84v1.562h7.952a28.161 28.161 0 0 0 3.868 11.805l4.902 8.168a24.85 24.85 0 0 0-8.91 19.09v1.563h1.562c4.399 0 8.543-2.344 10.805-6.117h.266c2.262 3.773 6.406 6.117 10.805 6.117h1.562v-1.563c0-7.39-3.25-14.344-8.91-19.09l4.652-7.75.542.035zM23.814 24a1.565 1.565 0 0 1-1.562-1.563c0-.86.699-1.563 1.562-1.563.864 0 1.563.703 1.563 1.563s-.7 1.562-1.563 1.562zm17.187-12.5a1.565 1.565 0 0 1-1.562-1.563c0-.86.7-1.563 1.562-1.563.864 0 1.563.703 1.563 1.563s-.7 1.562-1.563 1.562zm23.437-6.25c0 .86-.699 1.563-1.562 1.563a1.565 1.565 0 0 1-1.563-1.563c0-.86.7-1.563 1.563-1.563s1.562.704 1.562 1.563zM17.564 56.812a4.691 4.691 0 0 1 4.688 4.688c0 2.035-1.313 3.754-3.125 4.398V61.5h-3.125v4.398c-1.813-.648-3.125-2.367-3.125-4.398a4.691 4.691 0 0 1 4.687-4.688zm40.851-52.93a1.717 1.717 0 0 0-.023.075 87.93 87.93 0 0 0-13.211 3.91 4.539 4.539 0 0 0-.723-1.066 55.686 55.686 0 0 1 13.957-2.918zM27.392 19.446a4.654 4.654 0 0 0-2-1.403c3.325-2.976 7-5.566 10.965-7.695.055.602.215 1.168.477 1.684a46.759 46.759 0 0 0-9.441 7.414zM12.876 36.5c.864 0 1.563.703 1.563 1.562 0 .86-.7 1.563-1.563 1.563a1.565 1.565 0 0 1-1.562-1.563c0-.86.699-1.562 1.562-1.562zM9.74 41.52a4.646 4.646 0 0 0 2.593 1.175A62.363 62.363 0 0 0 9.76 59.937H6.626c0-6.45 1.106-12.64 3.114-18.418zM6.626 94.311a3.13 3.13 0 0 1-3.125-3.125V63.062h6.25v15.625H6.626v3.125h3.125v3.125H6.626v3.125h3.125v3.125a3.13 3.13 0 0 1-3.125 3.125zm9.216-59.852a4.605 4.605 0 0 0-2.555-1.043 56.519 56.519 0 0 1 6.187-9.222 4.698 4.698 0 0 0 1.622 2.046 33.524 33.524 0 0 0-5.254 8.22zm45.64 1.117c.7-.812 2.086-.812 2.785 0l1.961 2.29a25.032 25.032 0 0 1 4.32 7.257c-4.57 3.02-10.78 3.02-15.354 0a25.233 25.233 0 0 1 4.328-7.258l1.96-2.289zM73.25 64.836a28.143 28.143 0 0 0 2.125-10.695 28 28 0 0 0-1.101-7.738c2.61 2.129 4.226 5.332 4.226 8.847 0 3.953-2.039 7.512-5.25 9.586zM51.123 47.827a28 28 0 0 0-.727 5.86h-4.55c.566-2.774 2.617-5 5.277-5.86zM65.689 89.71l-2.813-4.683-2.812 4.687a9.525 9.525 0 0 1-6.496 4.457 21.704 21.704 0 0 1 7.777-15.03l.535-.454h1.992l.54.45a21.715 21.715 0 0 1 7.773 15.03 9.516 9.516 0 0 1-6.496-4.457zm-2.133-14.148h-1.355l-5.133-8.555A25.037 25.037 0 0 1 53.5 54.14c0-2.015.266-4.007.739-5.937a17 17 0 0 0 8.636 2.36 17 17 0 0 0 8.637-2.36c.473 1.93.738 3.922.738 5.938a25.07 25.07 0 0 1-3.562 12.866l-5.133 8.555zm.882-34.374h3.125v3.125h-3.125v-3.125z"/>
</svg>