<svg xmlns="http://www.w3.org/2000/svg" width="105" height="83">
  <g fill="none" fill-rule="nonzero">
    <g fill="#5BA8EF">
      <path d="M47.586 63.097l.034-.542-7.75-4.652a24.851 24.851 0 0 1-19.09 8.91h-1.562v-1.562c0-4.4 2.344-8.544 6.117-10.805v-.266c-3.773-2.262-6.117-6.407-6.117-10.805v-1.563h1.562a24.85 24.85 0 0 1 19.09 8.91l8.168-4.902a28.161 28.161 0 0 1 11.805-3.867V34h1.563c5.563 0 10.156 4.176 10.84 9.55a28.118 28.118 0 0 1 8.578 5.036l2.289 1.96c.691.595 1.606 2.141 1.887 2.985v1.632c-.281.844-1.2 2.32-1.887 2.915l-2.289 1.96a28.222 28.222 0 0 1-5.902 3.872 14.544 14.544 0 0 1-13.516 9.152 14.546 14.546 0 0 1-13.82-9.965zm33.446-10.084l-2.29-1.96a25.233 25.233 0 0 0-7.257-4.328c-3.02 4.574-3.02 10.784 0 15.355a25.032 25.032 0 0 0 7.258-4.32l2.289-1.962c.812-.699.812-2.085 0-2.785zM51.773 64.781c2.074 3.211 5.633 5.25 9.586 5.25 3.515 0 6.718-1.617 8.847-4.226a28 28 0 0 1-7.738 1.101c-3.68 0-7.312-.734-10.695-2.125zm17.009-22.127c-.86-2.66-3.086-4.711-5.86-5.277v4.55a28 28 0 0 1 5.86.727zM26.899 57.22a9.516 9.516 0 0 0-4.457 6.496 21.715 21.715 0 0 0 15.03-7.773l.45-.54v-1.992l-.453-.535A21.704 21.704 0 0 0 22.438 45.1a9.525 9.525 0 0 0 4.457 6.496l4.687 2.812L26.9 57.22zm14.148-2.133L49.6 60.22a25.07 25.07 0 0 0 12.867 3.562c2.016 0 4.008-.265 5.938-.738a17 17 0 0 1-2.36-8.637 17 17 0 0 1 2.36-8.636 24.968 24.968 0 0 0-5.938-.739A25.037 25.037 0 0 0 49.601 48.6l-8.554 5.133v1.355z"/>
      <path d="M75 54v3.125h-3.125V54z"/>
    </g>
    <path fill="#979797" d="M97.414 80.28H98l-1 .44.414-.44zm-.951-.687L102.715 73 105 75.41 97.801 83H7.2L0 75.41 2.285 73l6.252 6.593h87.926zM34.625 29.89l-2.405-1.794c3.478-4.664 3.478-8.455.128-11.894C27.91 11.645 27.91 6.08 32.196 0l2.452 1.728c-3.505 4.973-3.505 8.937-.151 12.38 4.442 4.561 4.442 9.996.128 15.782zM50.625 29.89l-2.405-1.794c3.478-4.664 3.478-8.455.128-11.894C43.91 11.645 43.91 6.08 48.196 0l2.452 1.728c-3.505 4.973-3.505 8.937-.151 12.38 4.442 4.561 4.442 9.996.128 15.782zM66.625 29.89l-2.405-1.794c3.478-4.664 3.478-8.455.128-11.894C59.91 11.645 59.91 6.08 64.196 0l2.452 1.728c-3.505 4.973-3.505 8.937-.151 12.38 4.442 4.561 4.442 9.996.128 15.782z"/>
  </g>
</svg>