<?xml version="1.0" encoding="UTF-8"?>
<svg width="35px" height="50px" viewBox="0 0 35 50" version="1.1" xmlns="http://www.w3.org/2000/svg" xmlns:xlink="http://www.w3.org/1999/xlink">
    <title>MultiLake</title>
    <defs>
        <linearGradient x1="50%" y1="62.5200262%" x2="50%" y2="100%" id="linearGradient-1">
            <stop stop-color="#B4EC51" stop-opacity="0" offset="0%"></stop>
            <stop stop-color="#429321" offset="100%"></stop>
        </linearGradient>
    </defs>
    <g id="Symbols" stroke="none" stroke-width="1" fill="none" fill-rule="evenodd">
        <g id="Map/Icon/Waterbody/Multi" transform="translate(-93.000000, -85.000000)">
            <g id="MultiLake" transform="translate(93.000000, 85.000000)">
                <g id="Group" opacity="0.853724888" transform="translate(0.462963, 16.203704)" fill="#4A90E2" fill-rule="nonzero">
                    <ellipse id="Oval-Copy-2" fill-opacity="0.5" cx="16.5509259" cy="16.8981481" rx="16.5509259" ry="16.8981481"></ellipse>
                    <ellipse id="Oval" fill-opacity="0.5" cx="16.5509259" cy="16.7824074" rx="12.8472222" ry="13.0787037"></ellipse>
                    <ellipse id="Oval-Copy" fill-opacity="0.51732337" cx="16.5509259" cy="16.7824074" rx="9.14351852" ry="9.375"></ellipse>
                </g>
                <text id="Lakes" font-family="RobotoSlab-Regular, Roboto Slab" font-size="11.4583333" font-weight="normal" fill="#000000">
                    <tspan x="13.5027568" y="37.6944444">2</tspan>
                </text>
                <g id="WaterBody-Multi-Copy" transform="translate(0.000000, 6.250000)" fill-rule="nonzero">
                    <path d="M8.04912581,24.1786758 L1.06518755,12.5510694 C1.02656355,12.4892916 0.967258152,12.3855323 0.891194214,12.2358724 C0.767043336,11.9915987 0.643620041,11.7110287 0.528657241,11.3971048 C0.198190675,10.494714 0,9.49655027 0,8.42915965 C0,3.7813686 3.73850644,0 8.33271212,0 C12.9279599,0 16.6666667,3.78116588 16.6666667,8.42915965 C16.6666667,9.87045614 16.2963419,11.2998864 15.5940138,12.5578223 L8.33388794,24.6527778 L8.04912581,24.1786758 Z" id="White-bg" fill="#FFFFFF"></path>
                    <g id="Pin">
                        <path d="M8.04912581,24.1786758 L1.06518755,12.5510694 C1.02656355,12.4892916 0.967258152,12.3855323 0.891194214,12.2358724 C0.767043336,11.9915987 0.643620041,11.7110287 0.528657241,11.3971048 C0.198190675,10.494714 0,9.49655027 0,8.42915965 C0,3.7813686 3.73850644,0 8.33271212,0 C12.9279599,0 16.6666667,3.78116588 16.6666667,8.42915965 C16.6666667,9.87045614 16.2963419,11.2998864 15.5940138,12.5578223 L8.33388794,24.6527778 L8.04912581,24.1786758 Z M15.0192135,12.2154824 C15.659409,11.0685168 16,9.75385714 16,8.42915965 C16,4.15501105 12.5601888,0.676135201 8.33271212,0.676135201 C4.10629348,0.676135201 0.666666667,4.1551975 0.666666667,8.42915965 C0.666666667,9.41090238 0.8493048,10.3307376 1.1536105,11.161692 C1.25894347,11.4493202 1.37150472,11.7051982 1.48376861,11.9260836 C1.55063762,12.057652 1.60226419,12.1479766 1.63353713,12.1976673 L8.33371457,23.3528282 L15.0192135,12.2154824 Z" id="Outer" fill="#000000"></path>
                        <path d="M15.0192135,12.2154824 C15.659409,11.0685168 16,9.75385714 16,8.42915965 C16,4.15501105 12.5601888,0.676135201 8.33271212,0.676135201 C4.10629348,0.676135201 0.666666667,4.1551975 0.666666667,8.42915965 C0.666666667,9.41090238 0.8493048,10.3307376 1.1536105,11.161692 C1.25894347,11.4493202 1.37150472,11.7051982 1.48376861,11.9260836 C1.55063762,12.057652 1.60226419,12.1479766 1.63353713,12.1976673 L8.33371457,23.3528282 L15.0192135,12.2154824 Z" id="Path-Copy-2" fill="url(#linearGradient-1)"></path>
                        <g id="Lake" transform="translate(1.666667, 1.643519)">
                            <path d="M6.72385621,0 C3.0163264,0 0,3.04135588 0,6.77951389 C0,10.5176719 3.0163873,13.5590278 6.72385621,13.5590278 C10.431386,13.5590278 13.4477124,10.5176719 13.4477124,6.77951389 C13.4477124,3.04135588 10.4325126,0 6.72385621,0 Z" id="Water" fill="#4A90E2"></path>
                            <path d="M6.72385621,0 C3.0163264,0 0,3.04135588 0,6.77951389 C0,10.5176719 3.0163873,13.5590278 6.72385621,13.5590278 C10.431386,13.5590278 13.4477124,10.5176719 13.4477124,6.77951389 C13.4477124,3.04135588 10.4325126,0 6.72385621,0 Z M11.8597716,3.73935537 C11.6254536,3.68538821 11.4684347,3.52828229 11.2495942,3.28002964 C10.9593741,2.94903635 10.5966049,2.53646907 9.88530488,2.53646907 C9.17403526,2.53646907 8.81244757,2.94903635 8.52101551,3.28002964 C8.2486357,3.58943976 8.07855398,3.76453063 7.72765407,3.76453063 C7.37678461,3.76453063 7.20669376,3.58943669 6.93429263,3.28002964 C6.64407246,2.94903635 6.28130333,2.53646907 5.57119079,2.53646907 C4.85992118,2.53646907 4.49833349,2.94903635 4.20808896,3.28002964 C3.93570914,3.58943976 3.76562743,3.76453063 3.41472752,3.76453063 C3.06382761,3.76453063 2.89257968,3.58943669 2.62136608,3.28002964 C2.50004313,3.14211219 2.36682662,2.99580093 2.20506066,2.86746236 C3.2993544,1.58423012 4.91695307,0.76753848 6.72376486,0.76753848 C8.91122572,0.76753848 10.821444,1.96440728 11.8597716,3.73935537 Z M10.0827394,8.72006608 C9.35243882,8.72006608 8.97657032,9.12901058 8.67445049,9.45641179 C8.38660842,9.77061135 8.20461487,9.94812765 7.82399625,9.94812765 C7.44456517,9.94812765 7.26256857,9.77063591 6.97472955,9.45641179 C6.67261276,9.12781322 6.29792875,8.72006608 5.5676282,8.72006608 C4.83732766,8.72006608 4.46145916,9.12901058 4.15933933,9.45641179 C3.87149726,9.76941399 3.68950371,9.94812765 3.31007262,9.94812765 C2.93064154,9.94812765 2.74864494,9.77063591 2.46080592,9.45641179 C2.28595886,9.2657276 2.08731249,9.04986201 1.80900415,8.90114376 C1.71028082,8.83158635 1.40816708,8.63730087 1.02992352,8.56655838 C0.855076466,8.00171146 0.759921813,7.40085164 0.759921813,6.77843934 C0.759921813,6.71727573 0.767058564,6.65731255 0.769437278,6.59734938 C1.02873295,6.67530365 1.20596116,6.84320116 1.4236141,7.05547774 C1.75545264,7.37689216 2.16700793,7.77625778 2.95440128,7.77625778 C3.74179462,7.77625778 4.15453744,7.37689216 4.48518845,7.05547774 C4.78849276,6.76045437 5.00855427,6.54819621 5.48907766,6.54819621 C5.96960105,6.54819621 6.18847198,6.76046972 6.49296687,7.05547774 C6.8248054,7.37689216 7.2363607,7.77625778 8.02375404,7.77625778 C8.81114738,7.77625778 9.22389021,7.37689216 9.55572874,7.05547774 C9.85903306,6.7616548 10.0790946,6.54819621 10.559618,6.54819621 C11.0401413,6.54819621 11.2601998,6.76046972 11.5635072,7.05547774 C11.8180466,7.30252996 12.1225293,7.59395204 12.6066458,7.71626697 C12.4888915,8.46820907 12.2343399,9.17339273 11.8668145,9.80661197 C11.7347886,9.7178661 11.6182218,9.59553889 11.490946,9.45762758 C11.1889115,9.12901058 10.8130399,8.72006608 10.0827394,8.72006608 Z M1.45244064,9.5822574 C1.61539412,9.66980591 1.74861064,9.81251895 1.90205779,9.97922831 C2.20417458,10.3078269 2.57885859,10.7167714 3.31034667,10.7167714 C4.04064722,10.7167714 4.41651571,10.3078269 4.71863555,9.98042567 C5.00647761,9.66742347 5.18847116,9.48870981 5.56790225,9.48870981 C5.94733334,9.48870981 6.12932993,9.66620155 6.41716895,9.97922831 C6.71928574,10.3078269 7.09396975,10.7167714 7.8242703,10.7167714 C8.55457085,10.7167714 8.93043934,10.3078269 9.23255918,9.98042567 C9.52040124,9.66622611 9.70239479,9.48870981 10.0830134,9.48870981 C10.463632,9.48870981 10.6456286,9.66620155 10.9334676,9.98042567 C11.0785777,10.1375316 11.2403376,10.3042348 11.4425527,10.4421461 C10.351852,11.8668817 8.64500583,12.79152 6.72409981,12.79152 C4.44014452,12.7914893 2.45392434,11.4890686 1.45244064,9.5822574 Z M12.091888,6.50258601 C11.7600495,6.18117159 11.3473067,5.78180597 10.5599133,5.78180597 C9.77251997,5.78180597 9.35977714,6.18117159 9.02793861,6.50258601 C8.72463429,6.79640895 8.50457279,7.00986754 8.0240494,7.00986754 C7.54352601,7.00986754 7.32465508,6.79759403 7.02016019,6.50258601 C6.68832166,6.18117159 6.27676636,5.78180597 5.48937302,5.78180597 C4.70197968,5.78180597 4.29042438,6.18117159 3.95858585,6.50258601 C3.65528153,6.79640895 3.43522003,7.00986754 2.95469664,7.00986754 C2.47417325,7.00986754 2.25530232,6.79759403 1.95080743,6.50258601 C1.68556497,6.2447422 1.36322363,5.94013381 0.842263321,5.82859511 C0.977857942,4.97229848 1.28950542,4.17599266 1.74384225,3.47922123 C1.84851237,3.56317152 1.9448576,3.66990542 2.04952467,3.78863134 C2.33974484,4.11962464 2.70251397,4.53219192 3.4126265,4.53219192 C4.12389612,4.53219192 4.48548381,4.11962464 4.77572834,3.78863134 C5.04810815,3.47922123 5.21818987,3.30413035 5.56908978,3.30413035 C5.91998969,3.30413035 6.09123762,3.4792243 6.36245122,3.78863134 C6.65267139,4.11962464 7.01544052,4.53219192 7.72555306,4.53219192 C8.43682267,4.53219192 8.79841036,4.11962464 9.08984242,3.78863134 C9.36222224,3.47922123 9.53230395,3.30413035 9.88439139,3.30413035 C10.2352609,3.30413035 10.4065392,3.4792243 10.6789404,3.78863134 C10.9691605,4.11962464 11.3319297,4.53219192 12.0432297,4.53219192 L12.2501919,4.53219192 C12.5285185,5.22776599 12.6867157,5.98452823 12.6867157,6.7796367 C12.6867157,6.83360386 12.6807686,6.88517324 12.6795793,6.93793997 C12.4558568,6.85278618 12.291728,6.69568027 12.091888,6.50258601 Z" id="Waves" fill="#000000"></path>
                        </g>
                    </g>
                </g>
                <g id="WaterBody-Multi-Copy-2" transform="translate(17.361111, 6.250000)" fill-rule="nonzero">
                    <path d="M8.04912581,24.1786758 L1.06518755,12.5510694 C1.02656355,12.4892916 0.967258152,12.3855323 0.891194214,12.2358724 C0.767043336,11.9915987 0.643620041,11.7110287 0.528657241,11.3971048 C0.198190675,10.494714 0,9.49655027 0,8.42915965 C0,3.7813686 3.73850644,0 8.33271212,0 C12.9279599,0 16.6666667,3.78116588 16.6666667,8.42915965 C16.6666667,9.87045614 16.2963419,11.2998864 15.5940138,12.5578223 L8.33388794,24.6527778 L8.04912581,24.1786758 Z" id="White-bg" fill="#FFFFFF"></path>
                    <g id="Pin">
                        <path d="M8.04912581,24.1786758 L1.06518755,12.5510694 C1.02656355,12.4892916 0.967258152,12.3855323 0.891194214,12.2358724 C0.767043336,11.9915987 0.643620041,11.7110287 0.528657241,11.3971048 C0.198190675,10.494714 0,9.49655027 0,8.42915965 C0,3.7813686 3.73850644,0 8.33271212,0 C12.9279599,0 16.6666667,3.78116588 16.6666667,8.42915965 C16.6666667,9.87045614 16.2963419,11.2998864 15.5940138,12.5578223 L8.33388794,24.6527778 L8.04912581,24.1786758 Z M15.0192135,12.2154824 C15.659409,11.0685168 16,9.75385714 16,8.42915965 C16,4.15501105 12.5601888,0.676135201 8.33271212,0.676135201 C4.10629348,0.676135201 0.666666667,4.1551975 0.666666667,8.42915965 C0.666666667,9.41090238 0.8493048,10.3307376 1.1536105,11.161692 C1.25894347,11.4493202 1.37150472,11.7051982 1.48376861,11.9260836 C1.55063762,12.057652 1.60226419,12.1479766 1.63353713,12.1976673 L8.33371457,23.3528282 L15.0192135,12.2154824 Z" id="Outer" fill="#000000"></path>
                        <path d="M15.0192135,12.2154824 C15.659409,11.0685168 16,9.75385714 16,8.42915965 C16,4.15501105 12.5601888,0.676135201 8.33271212,0.676135201 C4.10629348,0.676135201 0.666666667,4.1551975 0.666666667,8.42915965 C0.666666667,9.41090238 0.8493048,10.3307376 1.1536105,11.161692 C1.25894347,11.4493202 1.37150472,11.7051982 1.48376861,11.9260836 C1.55063762,12.057652 1.60226419,12.1479766 1.63353713,12.1976673 L8.33371457,23.3528282 L15.0192135,12.2154824 Z" id="Path-Copy-2" fill="url(#linearGradient-1)"></path>
                        <g id="Lake" transform="translate(1.666667, 1.643519)">
                            <path d="M6.72385621,0 C3.0163264,0 0,3.04135588 0,6.77951389 C0,10.5176719 3.0163873,13.5590278 6.72385621,13.5590278 C10.431386,13.5590278 13.4477124,10.5176719 13.4477124,6.77951389 C13.4477124,3.04135588 10.4325126,0 6.72385621,0 Z" id="Water" fill="#4A90E2"></path>
                            <path d="M6.72385621,0 C3.0163264,0 0,3.04135588 0,6.77951389 C0,10.5176719 3.0163873,13.5590278 6.72385621,13.5590278 C10.431386,13.5590278 13.4477124,10.5176719 13.4477124,6.77951389 C13.4477124,3.04135588 10.4325126,0 6.72385621,0 Z M11.8597716,3.73935537 C11.6254536,3.68538821 11.4684347,3.52828229 11.2495942,3.28002964 C10.9593741,2.94903635 10.5966049,2.53646907 9.88530488,2.53646907 C9.17403526,2.53646907 8.81244757,2.94903635 8.52101551,3.28002964 C8.2486357,3.58943976 8.07855398,3.76453063 7.72765407,3.76453063 C7.37678461,3.76453063 7.20669376,3.58943669 6.93429263,3.28002964 C6.64407246,2.94903635 6.28130333,2.53646907 5.57119079,2.53646907 C4.85992118,2.53646907 4.49833349,2.94903635 4.20808896,3.28002964 C3.93570914,3.58943976 3.76562743,3.76453063 3.41472752,3.76453063 C3.06382761,3.76453063 2.89257968,3.58943669 2.62136608,3.28002964 C2.50004313,3.14211219 2.36682662,2.99580093 2.20506066,2.86746236 C3.2993544,1.58423012 4.91695307,0.76753848 6.72376486,0.76753848 C8.91122572,0.76753848 10.821444,1.96440728 11.8597716,3.73935537 Z M10.0827394,8.72006608 C9.35243882,8.72006608 8.97657032,9.12901058 8.67445049,9.45641179 C8.38660842,9.77061135 8.20461487,9.94812765 7.82399625,9.94812765 C7.44456517,9.94812765 7.26256857,9.77063591 6.97472955,9.45641179 C6.67261276,9.12781322 6.29792875,8.72006608 5.5676282,8.72006608 C4.83732766,8.72006608 4.46145916,9.12901058 4.15933933,9.45641179 C3.87149726,9.76941399 3.68950371,9.94812765 3.31007262,9.94812765 C2.93064154,9.94812765 2.74864494,9.77063591 2.46080592,9.45641179 C2.28595886,9.2657276 2.08731249,9.04986201 1.80900415,8.90114376 C1.71028082,8.83158635 1.40816708,8.63730087 1.02992352,8.56655838 C0.855076466,8.00171146 0.759921813,7.40085164 0.759921813,6.77843934 C0.759921813,6.71727573 0.767058564,6.65731255 0.769437278,6.59734938 C1.02873295,6.67530365 1.20596116,6.84320116 1.4236141,7.05547774 C1.75545264,7.37689216 2.16700793,7.77625778 2.95440128,7.77625778 C3.74179462,7.77625778 4.15453744,7.37689216 4.48518845,7.05547774 C4.78849276,6.76045437 5.00855427,6.54819621 5.48907766,6.54819621 C5.96960105,6.54819621 6.18847198,6.76046972 6.49296687,7.05547774 C6.8248054,7.37689216 7.2363607,7.77625778 8.02375404,7.77625778 C8.81114738,7.77625778 9.22389021,7.37689216 9.55572874,7.05547774 C9.85903306,6.7616548 10.0790946,6.54819621 10.559618,6.54819621 C11.0401413,6.54819621 11.2601998,6.76046972 11.5635072,7.05547774 C11.8180466,7.30252996 12.1225293,7.59395204 12.6066458,7.71626697 C12.4888915,8.46820907 12.2343399,9.17339273 11.8668145,9.80661197 C11.7347886,9.7178661 11.6182218,9.59553889 11.490946,9.45762758 C11.1889115,9.12901058 10.8130399,8.72006608 10.0827394,8.72006608 Z M1.45244064,9.5822574 C1.61539412,9.66980591 1.74861064,9.81251895 1.90205779,9.97922831 C2.20417458,10.3078269 2.57885859,10.7167714 3.31034667,10.7167714 C4.04064722,10.7167714 4.41651571,10.3078269 4.71863555,9.98042567 C5.00647761,9.66742347 5.18847116,9.48870981 5.56790225,9.48870981 C5.94733334,9.48870981 6.12932993,9.66620155 6.41716895,9.97922831 C6.71928574,10.3078269 7.09396975,10.7167714 7.8242703,10.7167714 C8.55457085,10.7167714 8.93043934,10.3078269 9.23255918,9.98042567 C9.52040124,9.66622611 9.70239479,9.48870981 10.0830134,9.48870981 C10.463632,9.48870981 10.6456286,9.66620155 10.9334676,9.98042567 C11.0785777,10.1375316 11.2403376,10.3042348 11.4425527,10.4421461 C10.351852,11.8668817 8.64500583,12.79152 6.72409981,12.79152 C4.44014452,12.7914893 2.45392434,11.4890686 1.45244064,9.5822574 Z M12.091888,6.50258601 C11.7600495,6.18117159 11.3473067,5.78180597 10.5599133,5.78180597 C9.77251997,5.78180597 9.35977714,6.18117159 9.02793861,6.50258601 C8.72463429,6.79640895 8.50457279,7.00986754 8.0240494,7.00986754 C7.54352601,7.00986754 7.32465508,6.79759403 7.02016019,6.50258601 C6.68832166,6.18117159 6.27676636,5.78180597 5.48937302,5.78180597 C4.70197968,5.78180597 4.29042438,6.18117159 3.95858585,6.50258601 C3.65528153,6.79640895 3.43522003,7.00986754 2.95469664,7.00986754 C2.47417325,7.00986754 2.25530232,6.79759403 1.95080743,6.50258601 C1.68556497,6.2447422 1.36322363,5.94013381 0.842263321,5.82859511 C0.977857942,4.97229848 1.28950542,4.17599266 1.74384225,3.47922123 C1.84851237,3.56317152 1.9448576,3.66990542 2.04952467,3.78863134 C2.33974484,4.11962464 2.70251397,4.53219192 3.4126265,4.53219192 C4.12389612,4.53219192 4.48548381,4.11962464 4.77572834,3.78863134 C5.04810815,3.47922123 5.21818987,3.30413035 5.56908978,3.30413035 C5.91998969,3.30413035 6.09123762,3.4792243 6.36245122,3.78863134 C6.65267139,4.11962464 7.01544052,4.53219192 7.72555306,4.53219192 C8.43682267,4.53219192 8.79841036,4.11962464 9.08984242,3.78863134 C9.36222224,3.47922123 9.53230395,3.30413035 9.88439139,3.30413035 C10.2352609,3.30413035 10.4065392,3.4792243 10.6789404,3.78863134 C10.9691605,4.11962464 11.3319297,4.53219192 12.0432297,4.53219192 L12.2501919,4.53219192 C12.5285185,5.22776599 12.6867157,5.98452823 12.6867157,6.7796367 C12.6867157,6.83360386 12.6807686,6.88517324 12.6795793,6.93793997 C12.4558568,6.85278618 12.291728,6.69568027 12.091888,6.50258601 Z" id="Waves" fill="#000000"></path>
                        </g>
                    </g>
                </g>
                <g id="WaterBody-Multi" transform="translate(7.638889, 0.000000)" fill-rule="nonzero">
                    <path d="M9.22295666,27.9246678 L1.2205274,14.4956013 C1.17627073,14.4242523 1.10831663,14.3044176 1.02116004,14.1315709 C0.878903822,13.849452 0.737481297,13.5254135 0.605753088,13.1628534 C0.227093482,12.1206556 0,10.9678468 0,9.73508579 C0,4.36721444 4.2837053,0 9.5478993,0 C14.8132873,0 19.0972222,4.36698031 19.0972222,9.73508579 C19.0972222,11.3996817 18.6728917,13.0505731 17.8681408,14.5034004 L9.54924659,28.4722222 L9.22295666,27.9246678 Z" id="White-bg" fill="#FFFFFF"></path>
                    <g id="Pin">
                        <path d="M9.22295666,27.9246678 L1.2205274,14.4956013 C1.17627073,14.4242523 1.10831663,14.3044176 1.02116004,14.1315709 C0.878903822,13.849452 0.737481297,13.5254135 0.605753088,13.1628534 C0.227093482,12.1206556 0,10.9678468 0,9.73508579 C0,4.36721444 4.2837053,0 9.5478993,0 C14.8132873,0 19.0972222,4.36698031 19.0972222,9.73508579 C19.0972222,11.3996817 18.6728917,13.0505731 17.8681408,14.5034004 L9.54924659,28.4722222 L9.22295666,27.9246678 Z M17.2095154,14.1080219 C17.9430728,12.7833574 18.3333333,11.2650181 18.3333333,9.73508579 C18.3333333,4.79874516 14.391883,0.780888542 9.5478993,0.780888542 C4.70512794,0.780888542 0.763888889,4.79896049 0.763888889,9.73508579 C0.763888889,10.8689295 0.97316175,11.9312744 1.32184536,12.8909682 C1.4425394,13.2231586 1.57151582,13.5186796 1.70015154,13.7737867 C1.77677228,13.9257389 1.83592772,14.0300575 1.8717613,14.0874467 L9.54904794,26.970872 L17.2095154,14.1080219 Z" id="Outer" fill="#000000"></path>
                        <path d="M17.2095154,14.1080219 C17.9430728,12.7833574 18.3333333,11.2650181 18.3333333,9.73508579 C18.3333333,4.79874516 14.391883,0.780888542 9.5478993,0.780888542 C4.70512794,0.780888542 0.763888889,4.79896049 0.763888889,9.73508579 C0.763888889,10.8689295 0.97316175,11.9312744 1.32184536,12.8909682 C1.4425394,13.2231586 1.57151582,13.5186796 1.70015154,13.7737867 C1.77677228,13.9257389 1.83592772,14.0300575 1.8717613,14.0874467 L9.54904794,26.970872 L17.2095154,14.1080219 Z" id="Path-Copy-2" fill="url(#linearGradient-1)"></path>
                        <g id="Lake" transform="translate(1.909722, 1.898148)">
                            <path d="M7.63888889,0 C3.42681068,0 0,3.51255186 0,7.82986111 C0,12.1471704 3.42687986,15.6597222 7.63888889,15.6597222 C11.8509671,15.6597222 15.2777778,12.1471704 15.2777778,7.82986111 C15.2777778,3.51255186 11.8522471,0 7.63888889,0 Z" id="Water" fill="#4A90E2"></path>
                            <path d="M7.63888889,0 C3.42681068,0 0,3.51255186 0,7.82986111 C0,12.1471704 3.42687986,15.6597222 7.63888889,15.6597222 C11.8509671,15.6597222 15.2777778,12.1471704 15.2777778,7.82986111 C15.2777778,3.51255186 11.8522471,0 7.63888889,0 Z M13.473738,4.31869212 C13.2075323,4.25636384 13.0291452,4.07491757 12.7805232,3.78820325 C12.4508077,3.4059293 12.0386703,2.92944315 11.2305712,2.92944315 C10.4225066,2.92944315 10.0117114,3.4059293 9.68061908,3.78820325 C9.37117178,4.14555014 9.17794408,4.34776777 8.77929108,4.34776777 C8.38067267,4.34776777 8.18743459,4.14554659 7.87796307,3.78820325 C7.54824757,3.4059293 7.1361101,2.92944315 6.32936014,2.92944315 C5.52129563,2.92944315 5.11050038,3.4059293 4.7807572,3.78820325 C4.4713099,4.14555014 4.2780822,4.34776777 3.8794292,4.34776777 C3.4807762,4.34776777 3.28622357,4.14554659 2.97810119,3.78820325 C2.84026771,3.6289183 2.6889221,3.45993911 2.50514182,3.31171709 C3.74835525,1.82967423 5.58608885,0.886452893 7.63878511,0.886452893 C10.123932,0.886452893 12.2941071,2.26875208 13.473738,4.31869212 Z M11.454874,10.0710622 C10.6251887,10.0710622 10.1981692,10.5433643 9.85493464,10.9214897 C9.52792087,11.284368 9.32116027,11.4893869 8.88874423,11.4893869 C8.45767732,11.4893869 8.25091326,11.2843964 7.92390295,10.9214897 C7.58067185,10.5419815 7.15499804,10.0710622 6.32531272,10.0710622 C5.49562741,10.0710622 5.06860792,10.5433643 4.72537336,10.9214897 C4.39835959,11.2829852 4.19159899,11.4893869 3.76053208,11.4893869 C3.32946518,11.4893869 3.12270112,11.2843964 2.79569081,10.9214897 C2.59704926,10.7012629 2.37136959,10.4519533 2.05518698,10.2801942 C1.94302864,10.1998603 1.59980099,9.97547424 1.17008323,9.89377165 C0.971441672,9.24141324 0.863337661,8.54746246 0.863337661,7.82862008 C0.863337661,7.75798042 0.871445634,7.68872717 0.874148062,7.61947393 C1.16873063,7.70950563 1.37007738,7.90341543 1.61735017,8.14857993 C1.99434777,8.51979094 2.46191059,8.98103011 3.35645831,8.98103011 C4.25100604,8.98103011 4.719918,8.51979094 5.09556646,8.14857993 C5.4401467,7.80784871 5.69015582,7.56270548 6.23607243,7.56270548 C6.78198904,7.56270548 7.03064556,7.80786644 7.3765784,8.14857993 C7.753576,8.51979094 8.22113882,8.98103011 9.11568654,8.98103011 C10.0102343,8.98103011 10.4791462,8.51979094 10.8561438,8.14857993 C11.2007241,7.80923513 11.4507332,7.56270548 11.9966498,7.56270548 C12.5425664,7.56270548 12.7925721,7.80786644 13.1371558,8.14857993 C13.4263349,8.43390784 13.7722539,8.77047982 14.3222525,8.91174495 C14.1884733,9.78018512 13.8992804,10.5946226 13.4817395,11.3259462 C13.3317464,11.223451 13.1993164,11.0821717 13.05472,10.9228938 C12.7115823,10.5433643 12.2845593,10.0710622 11.454874,10.0710622 Z M1.65009963,11.0668325 C1.83522905,11.1679449 1.98657466,11.3327684 2.16090405,11.5253059 C2.50413516,11.9048141 2.92980897,12.3771162 3.76084342,12.3771162 C4.59052874,12.3771162 5.01754823,11.9048141 5.36078279,11.5266888 C5.68779656,11.1651933 5.89455716,10.9587916 6.32562406,10.9587916 C6.75669097,10.9587916 6.96345503,11.1637821 7.29046534,11.5253059 C7.63369644,11.9048141 8.05937025,12.3771162 8.88905557,12.3771162 C9.71874088,12.3771162 10.1457604,11.9048141 10.4889949,11.5266888 C10.8160087,11.1638104 11.0227693,10.9587916 11.4551853,10.9587916 C11.8876014,10.9587916 12.0943654,11.1637821 12.4213758,11.5266888 C12.5862335,11.7081351 12.7700069,11.9006655 12.9997409,12.0599434 C11.7606094,13.7054127 9.82148293,14.7733048 7.63916564,14.7733048 C5.04439262,14.7732693 2.78787273,13.2690651 1.65009963,11.0668325 Z M13.7374426,7.51002891 C13.360445,7.13881789 12.8915331,6.67757872 11.9969854,6.67757872 C11.1024376,6.67757872 10.6335257,7.13881789 10.2565281,7.51002891 C9.91194783,7.84937371 9.66193871,8.09590335 9.1160221,8.09590335 C8.57010549,8.09590335 8.32144897,7.8507424 7.97551613,7.51002891 C7.59851853,7.13881789 7.13095571,6.67757872 6.23640798,6.67757872 C5.34186026,6.67757872 4.87429744,7.13881789 4.49729984,7.51002891 C4.1527196,7.84937371 3.90271048,8.09590335 3.35679387,8.09590335 C2.81087726,8.09590335 2.56222074,7.8507424 2.2162879,7.51002891 C1.91494927,7.21223747 1.54874131,6.86043623 0.956884818,6.73161689 C1.11093217,5.74265459 1.46499097,4.82297744 1.98115735,4.0182555 C2.10007177,4.11521218 2.20952837,4.23848232 2.32843933,4.37560239 C2.65815483,4.75787634 3.07029229,5.2343625 3.87704226,5.2343625 C4.68510677,5.2343625 5.09590202,4.75787634 5.4256452,4.37560239 C5.7350925,4.0182555 5.9283202,3.81603787 6.3269732,3.81603787 C6.7256262,3.81603787 6.92017883,4.01825905 7.22830121,4.37560239 C7.55801671,4.75787634 7.97015417,5.2343625 8.77690414,5.2343625 C9.58496865,5.2343625 9.9957639,4.75787634 10.3268562,4.37560239 C10.6363035,4.0182555 10.8295312,3.81603787 11.2295334,3.81603787 C11.6281518,3.81603787 11.822739,4.01825905 12.1322105,4.37560239 C12.461926,4.75787634 12.8740635,5.2343625 13.6821626,5.2343625 L13.9172897,5.2343625 C14.233493,6.03770157 14.413219,6.91170866 14.413219,7.83000294 C14.413219,7.89233122 14.4064626,7.95189022 14.4051113,8.01283208 C14.1509431,7.91448545 13.9644784,7.73303918 13.7374426,7.51002891 Z" id="Waves" fill="#000000"></path>
                        </g>
                    </g>
                </g>
            </g>
        </g>
    </g>
</svg>