<svg xmlns="http://www.w3.org/2000/svg" width="41" height="60">
  <defs>
    <linearGradient id="a" x1="50%" x2="50%" y1="62.52%" y2="100%">
      <stop offset="0%" stop-color="#B4EC51" stop-opacity="0"/>
      <stop offset="100%" stop-color="#429321"/>
    </linearGradient>
  </defs>
  <g fill="none" fill-rule="nonzero">
    <path fill="#FFF" d="M19.8 58.846l-17.18-28.3c-.095-.15-.24-.402-.428-.766a18.647 18.647 0 0 1-.892-2.042A20.76 20.76 0 0 1 0 20.515C0 9.203 9.197 0 20.498 0 31.803 0 41 9.203 41 20.515c0 3.508-.911 6.987-2.639 10.048L20.501 60l-.7-1.154z"/>
    <path fill="#000" d="M19.8 58.846l-17.18-28.3c-.095-.15-.24-.402-.428-.766a18.647 18.647 0 0 1-.892-2.042A20.76 20.76 0 0 1 0 20.515C0 9.203 9.197 0 20.498 0 31.803 0 41 9.203 41 20.515c0 3.508-.911 6.987-2.639 10.048L20.501 60l-.7-1.154zM36.948 29.73a18.827 18.827 0 0 0 2.413-9.215c0-10.403-8.462-18.87-18.862-18.87-10.397 0-18.858 8.468-18.858 18.87 0 2.39.45 4.628 1.198 6.65.259.7.536 1.323.812 1.86.165.32.292.54.369.662L20.5 56.837 36.947 29.73z"/>
    <path fill="url(#a)" d="M36.947 29.73a18.827 18.827 0 0 0 2.413-9.215c0-10.403-8.462-18.87-18.862-18.87-10.397 0-18.858 8.468-18.858 18.87 0 2.39.45 4.628 1.198 6.65.259.7.536 1.323.812 1.86.165.32.292.54.369.662L20.5 56.837 36.947 29.73z"/>
    <path fill="#4A90E2" d="M20.5 4C11.457 4 4.1 11.402 4.1 20.5c0 9.098 7.357 16.5 16.4 16.5s16.4-7.402 16.4-16.5C36.9 11.402 29.546 4 20.5 4z"/>
    <path fill="#000" d="M20.5 4C11.457 4 4.1 11.402 4.1 20.5c0 9.098 7.357 16.5 16.4 16.5s16.4-7.402 16.4-16.5C36.9 11.402 29.546 4 20.5 4zm12.527 9.1c-.572-.13-.955-.513-1.488-1.117-.708-.806-1.593-1.81-3.328-1.81-1.735 0-2.617 1.004-3.328 1.81-.664.753-1.079 1.18-1.935 1.18-.855 0-1.27-.427-1.935-1.18-.708-.806-1.592-1.81-3.324-1.81-1.735 0-2.617 1.004-3.325 1.81-.665.753-1.08 1.18-1.935 1.18-.856 0-1.274-.427-1.935-1.18-.296-.336-.621-.692-1.016-1.004 2.67-3.123 6.615-5.111 11.022-5.111 5.335 0 9.994 2.913 12.527 7.233zm-4.334 12.123c-1.782 0-2.698.995-3.435 1.792-.702.765-1.146 1.197-2.075 1.197-.925 0-1.369-.432-2.071-1.197-.737-.8-1.65-1.792-3.432-1.792-1.781 0-2.698.995-3.435 1.792-.702.762-1.146 1.197-2.071 1.197-.926 0-1.37-.432-2.072-1.197-.426-.464-.91-.99-1.59-1.351-.24-.17-.977-.643-1.9-.815a14.67 14.67 0 0 1-.658-4.352c0-.148.017-.294.023-.44.632.19 1.064.598 1.595 1.115.81.782 1.813 1.754 3.734 1.754 1.92 0 2.927-.972 3.734-1.754.74-.718 1.276-1.235 2.448-1.235s1.706.517 2.449 1.235c.81.782 1.813 1.754 3.734 1.754 1.92 0 2.927-.972 3.736-1.754.74-.715 1.277-1.235 2.449-1.235s1.708.517 2.448 1.235c.621.6 1.364 1.31 2.545 1.608a14.605 14.605 0 0 1-1.805 5.087c-.322-.216-.606-.513-.917-.849-.736-.8-1.653-1.795-3.434-1.795zM7.643 27.32c.397.213.722.56 1.096.966.737.8 1.651 1.796 3.435 1.796 1.781 0 2.698-.996 3.435-1.793.702-.761 1.146-1.196 2.072-1.196.925 0 1.369.432 2.071 1.193.737.8 1.65 1.796 3.432 1.796 1.781 0 2.698-.996 3.435-1.793.702-.764 1.146-1.196 2.074-1.196.929 0 1.373.432 2.075 1.196.353.383.748.788 1.241 1.124-2.66 3.468-6.823 5.718-11.508 5.718-5.571 0-10.416-3.17-12.858-7.81zm25.95-7.495c-.81-.782-1.816-1.754-3.737-1.754-1.92 0-2.927.972-3.736 1.754-.74.715-1.277 1.235-2.449 1.235s-1.706-.517-2.448-1.235c-.81-.782-1.813-1.754-3.734-1.754-1.92 0-2.924.972-3.734 1.754-.74.715-1.276 1.235-2.448 1.235s-1.706-.517-2.449-1.235c-.647-.628-1.433-1.369-2.704-1.64a14.623 14.623 0 0 1 2.2-5.718c.255.204.49.464.745.753.708.805 1.593 1.81 3.325 1.81 1.734 0 2.616-1.005 3.324-1.81.665-.753 1.08-1.18 1.935-1.18.856 0 1.274.427 1.936 1.18.707.805 1.592 1.81 3.324 1.81 1.735 0 2.617-1.005 3.328-1.81.664-.753 1.079-1.18 1.938-1.18.856 0 1.273.427 1.938 1.18.708.805 1.592 1.81 3.327 1.81h.505a14.655 14.655 0 0 1 1.065 5.47c0 .13-.015.256-.018.385-.545-.208-.946-.59-1.433-1.06z"/>
  </g>
</svg>