<svg width="41" height="60" xmlns="http://www.w3.org/2000/svg" xmlns:xlink="http://www.w3.org/1999/xlink"><defs><path d="M12.5 0C5.608 0 0 5.608 0 12.5S5.608 25 12.5 25 25 19.392 25 12.5 19.395 0 12.5 0z" id="a"/></defs><g fill="none" fill-rule="evenodd"><path d="M20.501 57.109l16.554-27.283a18.997 18.997 0 0 0 2.445-9.311C39.5 10.03 30.974 1.5 20.498 1.5 10.025 1.5 1.5 10.032 1.5 20.515c0 2.316.417 4.569 1.207 6.703.252.679.528 1.31.82 1.876.148.29.275.515.376.674L20.5 57.108z" stroke="#979797" stroke-width="3"/><g transform="translate(8 8)"><mask id="b" fill="#fff"><use xlink:href="#a"/></mask><g mask="url(#b)" fill-rule="nonzero" stroke="#979797" stroke-width="3"><path d="M-1 9.912C2.482 9.912 2.482 7 5.74 7 9 7 9 9.912 12.15 9.912S16.037 7 19.04 7s3.003 2.912 6.59 2.912M-1 17.912C2.482 17.912 2.482 15 5.74 15 9 15 9 17.912 12.15 17.912S16.037 15 19.04 15s3.003 2.912 6.59 2.912"/></g></g><path d="M20.5 8C13.608 8 8 13.608 8 20.5S13.608 33 20.5 33 33 27.392 33 20.5 27.395 8 20.5 8z" stroke="#979797" stroke-width="3"/></g></svg>