<?xml version="1.0" encoding="UTF-8"?>
<svg width="25px" height="38px" viewBox="0 0 25 38" version="1.1" xmlns="http://www.w3.org/2000/svg" xmlns:xlink="http://www.w3.org/1999/xlink">
    <!-- Generator: Sketch 52 (66869) - http://www.bohemiancoding.com/sketch -->
    <title>Water body location</title>
    <desc>Created with Sketch.</desc>
    <g id="Page-1" stroke="none" stroke-width="1" fill="none" fill-rule="evenodd">
        <g id="Water-body-location" transform="translate(1.000000, 1.000000)" fill-rule="nonzero">
            <path d="M8.52842123,28.199581 L1.4598249,16.7832327 C1.44587184,16.760985 0,14.5328364 0,11.2828676 C0,5.06226352 5.15928327,1.42108547e-14 11.499107,1.42108547e-14 C17.8407167,1.42108547e-14 23,5.06226352 23,11.2828676 C23,13.2115221 22.4889831,15.1247992 21.5279411,16.7950614 L14.4711073,28.1995157 C18.2626784,28.7247085 21,30.2277573 21,32 C21,34.209139 16.7467051,36 11.5,36 C6.25329488,36 2,34.209139 2,32 C2,30.2278307 4.73709469,28.7248331 8.52842123,28.199581 Z M11.5006697,33 L1.4598249,16.7832327 C1.44587184,16.760985 0,14.5328364 0,11.2828676 C0,5.06226352 5.15928327,0 11.499107,0 C17.8407167,0 23,5.06226352 23,11.2828676 C23,13.2115221 22.4889831,15.1247992 21.5279411,16.7950614 L11.5006697,33 Z" id="Shape" stroke="#000000"></path>
            <path d="M11.5,2 C6.26170637,2 2,6.26179241 2,11.5 C2,16.7382076 6.26179241,21 11.5,21 C16.7382936,21 21,16.7382076 21,11.5 C21,6.26179241 16.7398854,2 11.5,2 Z M11.5,3.07553664 C14.59049,3.07553664 17.2893986,4.75268545 18.7564306,7.23988543 C18.4253675,7.1642623 18.2035187,6.94411285 17.8943234,6.59624128 C17.4842772,6.13242686 16.9717281,5.55430441 15.9667467,5.55430441 C14.9618083,5.55430441 14.4509284,6.13242686 14.0391699,6.59624128 C13.65433,7.02981161 13.414025,7.27516303 12.9182456,7.27516303 C12.4225093,7.27516303 12.1821914,7.02980731 11.7973213,6.59624128 C11.3872752,6.13242686 10.874726,5.55430441 9.87142243,5.55430441 C8.86648401,5.55430441 8.35560411,6.13242686 7.9455235,6.59624128 C7.56068359,7.02981161 7.32037859,7.27516303 6.82459922,7.27516303 C6.32881985,7.27516303 6.08686713,7.02980731 5.70367494,6.59624128 C5.53226021,6.40298026 5.3440413,6.19795716 5.11548546,6.01811883 C6.66159089,4.21995064 8.94706322,3.07553664 11.4998709,3.07553664 L11.5,3.07553664 Z M18.2354406,15.2527624 C17.808586,14.7923037 17.2775247,14.2192578 16.2456979,14.2192578 C15.213871,14.2192578 14.6828141,14.7923037 14.2559551,15.2510846 C13.8492689,15.6913663 13.5921339,15.9401164 13.0543655,15.9401164 C12.5182751,15.9401164 12.2611358,15.6914007 11.8544539,15.2510846 C11.4275992,14.7906258 10.8982157,14.2192578 9.86638891,14.2192578 C8.83456209,14.2192578 8.30350512,14.7923037 7.87664614,15.2510846 C7.46995992,15.6896884 7.21282493,15.9401164 6.67673444,15.9401164 C6.14064396,15.9401164 5.88350466,15.6914007 5.47682275,15.2510846 C5.22978489,14.9838826 4.94912146,14.6813943 4.55590526,14.4729984 C4.41642107,14.3755289 3.98957069,14.1032805 3.45515805,14.0041504 C3.20812019,13.2126415 3.07367811,12.3706684 3.07367811,11.4984942 C3.07367811,11.4127869 3.08376148,11.3287617 3.08712232,11.2447364 C3.45347591,11.3539722 3.70387805,11.5892437 4.01139548,11.8867027 C4.48024341,12.3370945 5.06172154,12.8967177 6.17421361,12.8967177 C7.28670569,12.8967177 7.86986165,12.3370945 8.33703175,11.8867027 C8.76556426,11.4732923 9.07648469,11.1758591 9.75540644,11.1758591 C10.4343282,11.1758591 10.7435665,11.4733138 11.1737811,11.8867027 C11.6426291,12.3370945 12.2241072,12.8967177 13.3365993,12.8967177 C14.4490913,12.8967177 15.0322473,12.3370945 15.5010952,11.8867027 C15.9296278,11.4749744 16.2405482,11.1758591 16.9194699,11.1758591 C17.5983917,11.1758591 17.9093078,11.4733138 18.3378446,11.8867027 C18.6974783,12.2328922 19.1276757,12.6412562 19.811674,12.8126537 C19.6453014,13.8663355 19.2856505,14.8544955 18.7663814,15.7418132 C18.5798447,15.6174554 18.4151499,15.4460407 18.2353245,15.2527882 L18.2354406,15.2527624 Z M11.5,19.9244634 C8.27339009,19.9244634 5.4670999,18.0994068 4.0521239,15.4274296 C4.28235758,15.5501096 4.47057649,15.7500906 4.68737886,15.9836971 C5.11423354,16.4441559 5.64361697,17.0172018 6.67712164,17.0172018 C7.70894846,17.0172018 8.24000543,16.4441559 8.66686441,15.985375 C9.07355063,15.5467711 9.33068563,15.2963432 9.86677611,15.2963432 C10.4028666,15.2963432 10.6600059,15.5450589 11.0666878,15.9836971 C11.4935425,16.4441559 12.0229259,17.0172018 13.0547527,17.0172018 C14.0865796,17.0172018 14.6176365,16.4441559 15.0444955,15.985375 C15.4511817,15.5450933 15.7083167,15.2963432 16.246085,15.2963432 C16.7838534,15.2963432 17.0409927,15.5450589 17.4476746,15.985375 C17.6526977,16.2055244 17.8812449,16.4391224 18.1669505,16.6323748 C16.6259216,18.6288289 14.2143533,19.9245064 11.5003442,19.9245064 L11.5,19.9244634 Z M19.9145684,11.7219908 C19.5986274,11.602675 19.3667331,11.3825256 19.0843832,11.1119464 C18.6155353,10.6615547 18.0323793,10.1019314 16.9198872,10.1019314 C15.8073952,10.1019314 15.2242392,10.6615547 14.7553913,11.1119464 C14.3268588,11.5236747 14.0159383,11.8227901 13.3370166,11.8227901 C12.6580948,11.8227901 12.3488565,11.5253353 11.9186419,11.1119464 C11.4497939,10.6615547 10.8683158,10.1019314 9.75582375,10.1019314 C8.64333167,10.1019314 8.06185355,10.6615547 7.59300562,11.1119464 C7.1644731,11.5236747 6.85355267,11.8227901 6.17463092,11.8227901 C5.49570917,11.8227901 5.18647088,11.5253353 4.75625623,11.1119464 C4.38150054,10.7506349 3.92607101,10.3237931 3.19001676,10.1674962 C3.38159564,8.96758446 3.82191604,7.85173671 4.46383933,6.87536455 C4.61172561,6.99300245 4.74784983,7.14256657 4.89573182,7.30893488 C5.30577801,7.7727493 5.81832714,8.35087175 6.82163074,8.35087175 C7.82656915,8.35087175 8.33744905,7.7727493 8.74752966,7.30893488 C9.13236958,6.87536455 9.37267458,6.63001313 9.86845394,6.63001313 C10.3642333,6.63001313 10.606186,6.87536885 10.9893782,7.30893488 C11.3994244,7.7727493 11.9119736,8.35087175 12.9152771,8.35087175 C13.9202156,8.35087175 14.4310955,7.7727493 14.8428539,7.30893488 C15.2276938,6.87536455 15.4679988,6.63001313 15.965456,6.63001313 C16.4611924,6.63001313 16.7031881,6.87536885 17.0880581,7.30893488 C17.4981043,7.7727493 18.0106535,8.35087175 19.0156349,8.35087175 L19.3080475,8.35087175 C19.7012895,9.32556607 19.9248032,10.3860022 19.9248032,11.5001721 C19.9248032,11.5757952 19.9164007,11.6480584 19.9147203,11.7219994 L19.9145684,11.7219908 Z" id="Shape" fill="#000000"></path>
        </g>
    </g>
</svg>